<svg width="1046" height="29" viewBox="0 0 1046 29" fill="none" xmlns="http://www.w3.org/2000/svg">
<path fill-rule="evenodd" clip-rule="evenodd" d="M0 28.2417L8.09759 0L8.7497 0.75812L0.652115 28.9998L0 28.2417ZM8.09758 28.242L16.195 0L16.8471 0.758129L8.74968 29.0001L8.09758 28.242ZM24.2925 0L16.195 28.242L16.8471 29.0001L24.9446 0.758129L24.2925 0ZM24.2925 28.242L32.3899 0L33.042 0.758129L24.9446 29.0001L24.2925 28.242ZM40.4873 0L32.3899 28.242L33.042 29.0001L41.1395 0.758129L40.4873 0ZM40.4873 28.242L48.5848 0L49.2369 0.758129L41.1395 29.0001L40.4873 28.242ZM56.6822 0L48.5848 28.242L49.2369 29.0001L57.3343 0.758129L56.6822 0ZM56.6822 28.242L64.7797 0L65.4318 0.758129L57.3343 29.0001L56.6822 28.242ZM72.8771 0L64.7797 28.242L65.4318 29.0001L73.5292 0.758129L72.8771 0ZM72.8771 28.242L80.9746 0L81.6267 0.758129L73.5292 29.0001L72.8771 28.242ZM89.072 0L80.9746 28.242L81.6267 29.0001L89.7241 0.758129L89.072 0ZM89.072 28.242L97.1694 0L97.8215 0.758129L89.7241 29.0001L89.072 28.242ZM105.267 0L97.1694 28.242L97.8215 29.0001L105.919 0.758129L105.267 0ZM105.267 28.242L113.364 0L114.016 0.758129L105.919 29.0001L105.267 28.242ZM121.462 0L113.364 28.242L114.016 29.0001L122.114 0.758129L121.462 0ZM121.462 28.242L129.559 0L130.211 0.758129L122.114 29.0001L121.462 28.242ZM137.657 0L129.559 28.242L130.211 29.0001L138.309 0.758129L137.657 0ZM137.657 28.242L145.754 0L146.406 0.758129L138.309 29.0001L137.657 28.242ZM153.852 1.09186e-05L145.754 28.242L146.406 29.0001L154.504 0.75814L153.852 1.09186e-05ZM153.852 28.242L161.949 1.09186e-05L162.601 0.75814L154.504 29.0001L153.852 28.242ZM170.046 1.09186e-05L161.949 28.242L162.601 29.0001L170.699 0.75814L170.046 1.09186e-05ZM170.046 28.242L178.144 1.09186e-05L178.796 0.75814L170.699 29.0001L170.046 28.242ZM186.241 1.09186e-05L178.144 28.242L178.796 29.0001L186.893 0.75814L186.241 1.09186e-05ZM186.241 28.242L194.339 1.09186e-05L194.991 0.75814L186.893 29.0001L186.241 28.242ZM202.436 1.09186e-05L194.339 28.242L194.991 29.0001L203.088 0.75814L202.436 1.09186e-05ZM202.436 28.242L210.534 1.09186e-05L211.186 0.75814L203.088 29.0001L202.436 28.242ZM218.631 1.09186e-05L210.534 28.242L211.186 29.0001L219.283 0.75814L218.631 1.09186e-05ZM218.631 28.242L226.729 1.09186e-05L227.381 0.75814L219.283 29.0001L218.631 28.242ZM234.826 1.09186e-05L226.729 28.242L227.381 29.0001L235.478 0.75814L234.826 1.09186e-05ZM234.826 28.242L242.923 1.09186e-05L243.576 0.75814L235.478 29.0001L234.826 28.242ZM251.021 1.09186e-05L242.923 28.242L243.576 29.0001L251.673 0.75814L251.021 1.09186e-05ZM251.021 28.242L259.118 1.09186e-05L259.77 0.75814L251.673 29.0001L251.021 28.242ZM267.216 1.09186e-05L259.118 28.242L259.77 29.0001L267.868 0.75814L267.216 1.09186e-05ZM267.216 28.242L275.313 1.09186e-05L275.965 0.75814L267.868 29.0001L267.216 28.242ZM283.411 1.09186e-05L275.313 28.242L275.965 29.0001L284.063 0.75814L283.411 1.09186e-05ZM283.411 28.242L291.508 1.09186e-05L292.16 0.75814L284.063 29.0001L283.411 28.242ZM299.606 1.09186e-05L291.508 28.242L292.16 29.0001L300.258 0.75814L299.606 1.09186e-05ZM299.606 28.242L307.703 1.09186e-05L308.355 0.75814L300.258 29.0001L299.606 28.242ZM315.8 1.09186e-05L307.703 28.242L308.355 29.0001L316.453 0.75814L315.8 1.09186e-05ZM315.8 28.242L323.898 1.09186e-05L324.55 0.75814L316.453 29.0001L315.8 28.242ZM331.995 1.09186e-05L323.898 28.242L324.55 29.0001L332.647 0.75814L331.995 1.09186e-05ZM331.995 28.242L340.093 1.09186e-05L340.745 0.75814L332.647 29.0001L331.995 28.242ZM348.19 1.09186e-05L340.093 28.242L340.745 29.0001L348.842 0.75814L348.19 1.09186e-05ZM348.19 28.242L356.288 1.09186e-05L356.94 0.75814L348.842 29.0001L348.19 28.242ZM364.385 1.09186e-05L356.288 28.242L356.94 29.0001L365.037 0.75814L364.385 1.09186e-05ZM364.385 28.242L372.483 1.09186e-05L373.135 0.75814L365.037 29.0001L364.385 28.242ZM380.58 1.09186e-05L372.483 28.242L373.135 29.0001L381.232 0.75814L380.58 1.09186e-05ZM380.58 28.242L388.677 1.09186e-05L389.329 0.75814L381.232 29.0001L380.58 28.242ZM396.775 1.09186e-05L388.677 28.242L389.329 29.0001L397.427 0.75814L396.775 1.09186e-05ZM396.775 28.242L404.872 1.09186e-05L405.524 0.75814L397.427 29.0001L396.775 28.242ZM412.97 1.09186e-05L404.872 28.242L405.524 29.0001L413.622 0.75814L412.97 1.09186e-05ZM412.97 28.242L421.067 1.09186e-05L421.719 0.75814L413.622 29.0001L412.97 28.242ZM429.165 1.09186e-05L421.067 28.242L421.719 29.0001L429.817 0.75814L429.165 1.09186e-05ZM429.165 28.242L437.262 1.09186e-05L437.914 0.75814L429.817 29.0001L429.165 28.242ZM445.359 1.09186e-05L437.262 28.242L437.914 29.0001L446.012 0.75814L445.359 1.09186e-05ZM445.359 28.242L453.457 1.09186e-05L454.109 0.75814L446.012 29.0001L445.359 28.242ZM461.554 1.09186e-05L453.457 28.242L454.109 29.0001L462.206 0.75814L461.554 1.09186e-05ZM461.554 28.242L469.652 1.09186e-05L470.304 0.75814L462.206 29.0001L461.554 28.242ZM477.749 1.09186e-05L469.652 28.242L470.304 29.0001L478.401 0.75814L477.749 1.09186e-05ZM477.749 28.242L485.847 1.09186e-05L486.499 0.75814L478.401 29.0001L477.749 28.242ZM493.944 1.09186e-05L485.847 28.242L486.499 29.0001L494.596 0.75814L493.944 1.09186e-05ZM493.944 28.242L502.042 1.09186e-05L502.694 0.75814L494.596 29.0001L493.944 28.242ZM510.139 1.09186e-05L502.042 28.242L502.694 29.0001L510.791 0.75814L510.139 1.09186e-05ZM510.139 28.242L518.237 1.09186e-05L518.889 0.75814L510.791 29.0001L510.139 28.242ZM526.334 1.09186e-05L518.237 28.242L518.889 29.0001L526.986 0.75814L526.334 1.09186e-05ZM526.334 28.242L534.431 1.09186e-05L535.084 0.75814L526.986 29.0001L526.334 28.242ZM542.529 1.09186e-05L534.431 28.242L535.084 29.0001L543.181 0.75814L542.529 1.09186e-05ZM542.529 28.242L550.626 1.09186e-05L551.279 0.75814L543.181 29.0001L542.529 28.242ZM558.724 1.09186e-05L550.626 28.242L551.279 29.0001L559.376 0.75814L558.724 1.09186e-05ZM558.724 28.242L566.821 1.09186e-05L567.473 0.75814L559.376 29.0001L558.724 28.242ZM574.919 1.09186e-05L566.821 28.242L567.473 29.0001L575.571 0.75814L574.919 1.09186e-05ZM574.919 28.242L583.016 1.09186e-05L583.668 0.75814L575.571 29.0001L574.919 28.242ZM591.114 1.09186e-05L583.016 28.242L583.668 29.0001L591.766 0.75814L591.114 1.09186e-05ZM591.114 28.242L599.211 1.09186e-05L599.863 0.75814L591.766 29.0001L591.114 28.242ZM607.309 1.09186e-05L599.211 28.242L599.863 29.0001L607.961 0.75814L607.309 1.09186e-05ZM607.309 28.242L615.406 1.09186e-05L616.058 0.75814L607.961 29.0001L607.309 28.242ZM623.504 1.09186e-05L615.406 28.242L616.058 29.0001L624.156 0.75814L623.504 1.09186e-05ZM623.504 28.242L631.601 1.09186e-05L632.253 0.75814L624.156 29.0001L623.504 28.242ZM639.699 1.09186e-05L631.601 28.242L632.253 29.0001L640.351 0.75814L639.699 1.09186e-05ZM639.699 28.242L647.796 1.09186e-05L648.448 0.75814L640.351 29.0001L639.699 28.242ZM655.894 1.09186e-05L647.796 28.242L648.448 29.0001L656.546 0.75814L655.894 1.09186e-05ZM655.894 28.242L663.991 1.09186e-05L664.643 0.75814L656.546 29.0001L655.894 28.242ZM672.089 1.09186e-05L663.991 28.242L664.643 29.0001L672.741 0.75814L672.089 1.09186e-05ZM672.089 28.242L680.186 1.09186e-05L680.838 0.75814L672.741 29.0001L672.089 28.242ZM688.283 1.09186e-05L680.186 28.242L680.838 29.0001L688.936 0.75814L688.283 1.09186e-05ZM688.283 28.242L696.381 1.09186e-05L697.033 0.75814L688.936 29.0001L688.283 28.242ZM704.478 1.09186e-05L696.381 28.242L697.033 29.0001L705.13 0.75814L704.478 1.09186e-05ZM704.478 28.242L712.576 1.09186e-05L713.228 0.75814L705.13 29.0001L704.478 28.242ZM720.673 6.37601e-06L712.576 28.242L713.228 29.0001L721.325 0.758136L720.673 6.37601e-06ZM720.673 28.242L728.771 1.09186e-05L729.423 0.75814L721.325 29.0001L720.673 28.242ZM736.868 6.37601e-06L728.771 28.242L729.423 29.0001L737.52 0.758136L736.868 6.37601e-06ZM736.868 28.242L744.966 6.37601e-06L745.618 0.758136L737.52 29.0001L736.868 28.242ZM753.063 6.37601e-06L744.966 28.242L745.618 29.0001L753.715 0.758136L753.063 6.37601e-06ZM753.063 28.242L761.16 6.37601e-06L761.812 0.758136L753.715 29.0001L753.063 28.242ZM769.258 6.37601e-06L761.16 28.242L761.812 29.0001L769.91 0.758136L769.258 6.37601e-06ZM769.258 28.242L777.355 6.37601e-06L778.007 0.758136L769.91 29.0001L769.258 28.242ZM785.453 6.37601e-06L777.355 28.242L778.007 29.0001L786.105 0.758136L785.453 6.37601e-06ZM785.453 28.242L793.55 6.37601e-06L794.202 0.758136L786.105 29.0001L785.453 28.242ZM801.647 6.37601e-06L793.55 28.242L794.202 29.0001L802.3 0.758136L801.647 6.37601e-06ZM801.647 28.242L809.745 6.37601e-06L810.397 0.758136L802.3 29.0001L801.647 28.242ZM817.842 6.37601e-06L809.745 28.242L810.397 29.0001L818.494 0.758136L817.842 6.37601e-06ZM817.842 28.242L825.94 6.37601e-06L826.592 0.758136L818.494 29.0001L817.842 28.242ZM834.037 6.37601e-06L825.94 28.242L826.592 29.0001L834.689 0.758136L834.037 6.37601e-06ZM834.037 28.242L842.135 6.37601e-06L842.787 0.758136L834.689 29.0001L834.037 28.242ZM850.232 6.37601e-06L842.135 28.242L842.787 29.0001L850.884 0.758136L850.232 6.37601e-06ZM850.232 28.242L858.329 6.37601e-06L858.981 0.758136L850.884 29.0001L850.232 28.242ZM866.427 6.37601e-06L858.329 28.242L858.981 29.0001L867.079 0.758136L866.427 6.37601e-06ZM866.427 28.242L874.524 6.37601e-06L875.176 0.758136L867.079 29.0001L866.427 28.242ZM882.622 6.37601e-06L874.524 28.242L875.176 29.0001L883.274 0.758136L882.622 6.37601e-06ZM882.622 28.242L890.719 6.37601e-06L891.371 0.758136L883.274 29.0001L882.622 28.242ZM898.816 6.37601e-06L890.719 28.242L891.371 29.0001L899.469 0.758136L898.816 6.37601e-06ZM898.816 28.242L906.914 6.37601e-06L907.566 0.758136L899.469 29.0001L898.816 28.242ZM915.011 6.37601e-06L906.914 28.242L907.566 29.0001L915.663 0.758136L915.011 6.37601e-06ZM915.011 28.242L923.109 6.37601e-06L923.761 0.758136L915.663 29.0001L915.011 28.242ZM931.206 6.37601e-06L923.109 28.242L923.761 29.0001L931.858 0.758136L931.206 6.37601e-06ZM931.206 28.242L939.303 6.37601e-06L939.956 0.758136L931.858 29.0001L931.206 28.242ZM947.401 6.37601e-06L939.303 28.242L939.956 29.0001L948.053 0.758136L947.401 6.37601e-06ZM947.401 28.242L955.498 6.37601e-06L956.15 0.758136L948.053 29.0001L947.401 28.242ZM963.596 6.37601e-06L955.498 28.242L956.15 29.0001L964.248 0.758136L963.596 6.37601e-06ZM963.596 28.242L971.693 6.37601e-06L972.345 0.758136L964.248 29.0001L963.596 28.242ZM979.791 6.37601e-06L971.693 28.242L972.345 29.0001L980.443 0.758136L979.791 6.37601e-06ZM979.791 28.242L987.888 4.58369e-06L988.54 0.758134L980.443 29.0001L979.791 28.242ZM995.985 4.58369e-06L987.888 28.242L988.54 29.0001L996.637 0.758134L995.985 4.58369e-06ZM995.985 28.242L1004.08 4.58369e-06L1004.73 0.758134L996.637 29.0001L995.985 28.242ZM1012.18 4.58369e-06L1004.08 28.242L1004.73 29.0001L1012.83 0.758134L1012.18 4.58369e-06ZM1012.18 28.242L1020.28 4.58369e-06L1020.93 0.758134L1012.83 29.0001L1012.18 28.242ZM1028.38 4.58369e-06L1020.28 28.242L1020.93 29.0001L1029.03 0.758134L1028.38 4.58369e-06ZM1028.38 28.242L1036.47 4.58369e-06L1037.12 0.758134L1029.03 29.0001L1028.38 28.242ZM1044.57 4.58369e-06L1036.47 28.242L1037.12 29.0001L1045.22 0.758134L1044.57 4.58369e-06Z" fill="url(#paint0_linear_12_749)"/>
<defs>
<linearGradient id="paint0_linear_12_749" x1="4.85714e-10" y1="14.5001" x2="946.265" y2="12.9336" gradientUnits="userSpaceOnUse">
<stop stop-color="#322800" stop-opacity="0.4"/>
<stop offset="1" stop-color="#FFCC00" stop-opacity="0"/>
</linearGradient>
</defs>
</svg>
