<svg width="274" height="274" viewBox="0 0 274 274" fill="none" xmlns="http://www.w3.org/2000/svg">
<g clip-path="url(#clip0_110_302)">
<path d="M143.199 233.071C146.097 231.398 147.294 228.777 148.856 223.619L161.286 184.548L210.258 156.37C231.905 143.971 236.555 125.239 224.293 104L192.234 48.4725C179.971 27.2332 161.467 21.9692 139.866 34.4406L46.4962 88.3478C24.9692 100.776 20.1589 119.402 32.4643 140.715L64.5232 196.243C76.8268 217.553 95.3608 222.705 116.85 210.204L120.258 208.236L132.437 229.33C135.031 233.824 139.138 235.416 143.199 233.071ZM90.7707 138.076C85.7082 129.308 88.9348 119.325 97.7033 114.263C107.273 108.738 118.118 112.621 123.853 122.556C134.609 141.185 124.852 158.608 117.386 162.918C115.283 164.133 112.883 163.49 111.795 161.606C110.79 159.865 110.918 158.244 113.215 155.858C117.246 151.79 120.649 144.799 119.86 137.233L119.279 137.569C118.702 141.09 116.022 143.313 112.907 145.111C104.643 149.883 95.5832 146.412 90.7707 138.076ZM130.351 115.225C125.289 106.456 128.515 96.4733 137.284 91.4108C146.853 85.8858 157.698 89.7694 163.434 99.704C174.189 118.333 164.433 135.756 156.966 140.067C154.863 141.281 152.463 140.638 151.375 138.754C150.37 137.013 150.498 135.392 152.795 133.006C156.827 128.939 160.229 121.947 159.438 114.383L158.859 114.717C158.282 118.238 155.603 120.461 152.485 122.261C144.224 127.031 135.164 123.56 130.351 115.225Z" fill="#E1B400"/>
</g>
<defs>
<clipPath id="clip0_110_302">
<rect width="200" height="200" fill="white" transform="translate(0 100) rotate(-30)"/>
</clipPath>
</defs>
</svg>
