<svg width="40" height="41" viewBox="0 0 40 41" fill="none" xmlns="http://www.w3.org/2000/svg">
<rect x="-6.10352e-05" y="0.138672" width="40" height="40" rx="20" fill="white" fill-opacity="0.1"/>
<path fill-rule="evenodd" clip-rule="evenodd" d="M19.9933 12.1387C17.8218 12.1387 17.5486 12.1387 16.696 12.1854C15.8501 12.2254 15.2639 12.3589 14.7643 12.5592C14.2314 12.7594 13.7785 13.0398 13.3322 13.4737C12.9059 13.9409 12.6327 14.3815 12.4263 14.9088C12.2264 15.4161 12.0932 16.0035 12.0532 16.8446C11.9999 17.7123 11.9999 17.9793 11.9999 20.1487C11.9999 22.3181 11.9999 22.5984 12.0466 23.4528C12.0865 24.3005 12.2198 24.8879 12.4196 25.3886C12.6194 25.9226 12.8992 26.3698 13.3388 26.817C13.8051 27.2309 14.2581 27.5045 14.7843 27.7115C15.2905 27.9117 15.8767 28.0452 16.716 28.0853C17.582 28.132 17.8484 28.1387 20.0199 28.1387C22.1914 28.1387 22.4712 28.1387 23.3238 28.0853C24.1631 28.0452 24.7493 27.9117 25.2556 27.7115C25.7884 27.5112 26.2281 27.2309 26.6744 26.7903C27.1074 26.3364 27.3805 25.8892 27.5869 25.3619C27.7868 24.8546 27.92 24.2672 27.9533 23.4261C27.9933 22.5584 27.9999 22.2914 27.9999 20.1153C27.9999 17.9393 27.9999 17.6656 27.9533 16.8112C27.9133 15.9768 27.7801 15.3894 27.5803 14.8754C27.3805 14.3414 27.0874 13.9075 26.6477 13.4603C26.1881 13.0064 25.7551 12.7394 25.2289 12.5392C24.7227 12.3389 24.1365 12.2054 23.2972 12.1587C22.4379 12.1387 22.1715 12.1387 19.9933 12.1387ZM19.9933 13.5805C22.1248 13.5805 22.378 13.5805 23.2239 13.6272C24.0033 13.6672 24.4229 13.7941 24.7093 13.9075C25.0824 14.041 25.3488 14.2213 25.6286 14.5083C25.9083 14.7753 26.0815 15.0423 26.2281 15.4228C26.3347 15.7098 26.4612 16.1303 26.4945 16.9113C26.5412 17.759 26.5478 18.0127 26.5478 20.1487C26.5478 22.2847 26.5478 22.5383 26.5012 23.3861C26.4612 24.167 26.3347 24.5876 26.2214 24.8746C26.0882 25.2484 25.9083 25.5154 25.6219 25.7957C25.3555 26.0761 25.089 26.2496 24.7093 26.3965C24.4229 26.5033 24.0033 26.6301 23.2239 26.6635C22.378 26.7102 22.1248 26.7169 19.9933 26.7169C17.8617 26.7169 17.6086 26.7169 16.7626 26.6702C15.9833 26.6301 15.5636 26.5033 15.2772 26.3898C14.9042 26.2563 14.6377 26.0761 14.358 25.7891C14.0782 25.5221 13.905 25.2551 13.7585 24.8746C13.6519 24.5876 13.5253 24.167 13.492 23.3861C13.4454 22.5383 13.4387 22.2847 13.4387 20.1487C13.4387 18.0127 13.4387 17.759 13.4854 16.9113C13.5253 16.1303 13.6519 15.7098 13.7651 15.4228C13.8984 15.049 14.0782 14.782 14.3646 14.5016C14.6311 14.2213 14.8975 14.0477 15.2772 13.9009C15.5636 13.7941 15.9833 13.6672 16.7626 13.6339C17.6086 13.5871 17.8617 13.5805 19.9933 13.5805ZM15.89 20.1487C15.89 17.8792 17.7285 16.0369 19.9933 16.0369C22.2581 16.0369 24.0965 17.8792 24.0965 20.1487C24.0965 22.4182 22.2581 24.2605 19.9933 24.2605C17.7285 24.2605 15.89 22.4182 15.89 20.1487ZM19.9933 22.8187C18.5278 22.8187 17.3288 21.6172 17.3288 20.1487C17.3288 18.6802 18.5278 17.4787 19.9933 17.4787C21.4587 17.4787 22.6577 18.6802 22.6577 20.1487C22.6577 21.6172 21.4587 22.8187 19.9933 22.8187ZM24.2631 16.8312C24.7893 16.8312 25.2223 16.4107 25.2223 15.8767L25.2556 15.8433C25.2556 15.316 24.8226 14.8821 24.2897 14.8821C23.7568 14.8821 23.3305 15.336 23.3305 15.87C23.3305 16.404 23.7302 16.8312 24.2631 16.8312Z" fill="white"/>
</svg>
