<svg width="40" height="41" viewBox="0 0 40 41" fill="none" xmlns="http://www.w3.org/2000/svg">
<rect y="0.138672" width="40" height="40" rx="20" fill="white" fill-opacity="0.1"/>
<path fill-rule="evenodd" clip-rule="evenodd" d="M18.0503 23.3015V17.5638L23.019 20.4328L18.0503 23.3015ZM29.126 15.8292C28.9061 15.0064 28.2581 14.3583 27.4352 14.1383C25.9437 13.7388 19.9628 13.7388 19.9628 13.7388C19.9628 13.7388 13.9821 13.7388 12.4906 14.1383C11.6677 14.3583 11.0197 15.0064 10.7997 15.8292C10.4 17.3208 10.4 20.4326 10.4 20.4326C10.4 20.4326 10.4 23.5446 10.7997 25.0361C11.0197 25.8589 11.6677 26.5072 12.4906 26.727C13.9821 27.1267 19.9628 27.1267 19.9628 27.1267C19.9628 27.1267 25.9437 27.1267 27.4352 26.727C28.2581 26.5072 28.9061 25.8589 29.126 25.0361C29.5257 23.5446 29.5257 20.4326 29.5257 20.4326C29.5257 20.4326 29.5257 17.3208 29.126 15.8292Z" fill="white"/>
</svg>
